<svg xmlns="http://www.w3.org/2000/svg" xmlns:xlink="http://www.w3.org/1999/xlink" width="320" zoomAndPan="magnify" viewBox="0 0 240 239.999995" height="320" preserveAspectRatio="xMidYMid meet" version="1.0"><defs><clipPath id="ca98da974a"><path d="M 32 31.628906 L 157 31.628906 L 157 208.628906 L 32 208.628906 Z M 32 31.628906 " clip-rule="nonzero"/></clipPath><clipPath id="18d31e6e63"><path d="M 166 167 L 208.628906 167 L 208.628906 208.628906 L 166 208.628906 Z M 166 167 " clip-rule="nonzero"/></clipPath></defs><rect x="-24" width="288" fill="#ffffff" y="-23.999999" height="287.999994" fill-opacity="1"/><rect x="-24" width="288" fill="#ffffff" y="-23.999999" height="287.999994" fill-opacity="1"/><g clip-path="url(#ca98da974a)"><path fill="#273b7d" d="M 97.296875 180.546875 L 67.207031 180.546875 L 67.207031 144.554688 C 67.207031 136.886719 70.15625 132.753906 76.765625 131.929688 L 97.414062 131.929688 C 98.222656 131.863281 99.035156 131.839844 99.847656 131.859375 C 100.660156 131.882812 101.46875 131.945312 102.277344 132.054688 C 103.082031 132.164062 103.878906 132.316406 104.667969 132.511719 C 105.457031 132.710938 106.230469 132.945312 106.996094 133.226562 C 107.757812 133.507812 108.503906 133.828125 109.230469 134.191406 C 109.960938 134.550781 110.667969 134.949219 111.351562 135.390625 C 112.035156 135.828125 112.695312 136.300781 113.328125 136.8125 C 113.960938 137.320312 114.5625 137.863281 115.136719 138.4375 C 115.710938 139.015625 116.253906 139.621094 116.761719 140.253906 C 117.269531 140.886719 117.742188 141.546875 118.179688 142.234375 C 118.617188 142.917969 119.011719 143.625 119.371094 144.355469 C 119.734375 145.085938 120.050781 145.832031 120.328125 146.59375 C 120.609375 147.359375 120.84375 148.136719 121.039062 148.925781 C 121.230469 149.714844 121.382812 150.511719 121.488281 151.316406 C 121.597656 152.121094 121.660156 152.933594 121.679688 153.746094 C 121.699219 154.558594 121.671875 155.367188 121.605469 156.179688 C 121.605469 171.519531 112.339844 180.664062 97.414062 180.664062 Z M 67.148438 83.253906 L 67.148438 73.8125 C 67.148438 65.554688 70.6875 61.542969 78.355469 61.070312 L 93.816406 61.070312 C 107.03125 61.070312 115.054688 68.976562 115.054688 82.308594 C 115.054688 92.339844 109.628906 104.140625 94.40625 104.140625 L 67.265625 104.140625 Z M 135.824219 119.246094 L 130.394531 116.175781 L 135.117188 112.046875 C 140.660156 107.328125 149.867188 96.589844 149.867188 78.121094 C 149.867188 49.800781 127.917969 31.511719 93.992188 31.511719 L 50.921875 31.511719 C 50.320312 31.53125 49.722656 31.582031 49.125 31.660156 C 48.53125 31.738281 47.9375 31.84375 47.351562 31.976562 C 46.765625 32.113281 46.1875 32.273438 45.617188 32.464844 C 45.046875 32.652344 44.488281 32.871094 43.9375 33.113281 C 43.386719 33.355469 42.847656 33.625 42.324219 33.917969 C 41.800781 34.214844 41.292969 34.53125 40.796875 34.875 C 40.304688 35.21875 39.828125 35.585938 39.367188 35.972656 C 38.910156 36.363281 38.472656 36.769531 38.050781 37.203125 C 37.632812 37.632812 37.234375 38.082031 36.855469 38.550781 C 36.480469 39.019531 36.125 39.503906 35.796875 40.007812 C 35.464844 40.511719 35.160156 41.027344 34.878906 41.558594 C 34.597656 42.089844 34.34375 42.632812 34.113281 43.191406 C 33.882812 43.746094 33.683594 44.3125 33.507812 44.886719 C 33.332031 45.460938 33.183594 46.042969 33.066406 46.632812 C 32.945312 47.222656 32.855469 47.816406 32.792969 48.414062 C 32.730469 49.011719 32.695312 49.613281 32.691406 50.214844 L 32.691406 210.695312 L 94.757812 210.695312 C 132.519531 210.695312 156.828125 190.164062 156.828125 158.300781 C 156.828125 141.191406 148.980469 126.441406 135.707031 119.066406 " fill-opacity="1" fill-rule="nonzero"/></g><g clip-path="url(#18d31e6e63)"><path fill="#499fdd" d="M 166.621094 189.160156 C 166.621094 177.183594 176.238281 167.507812 188.15625 167.507812 C 200.074219 167.507812 209.808594 177.183594 209.808594 189.160156 C 209.808594 201.136719 200.132812 210.8125 188.15625 210.8125 C 176.179688 210.8125 166.621094 201.136719 166.621094 189.160156 " fill-opacity="1" fill-rule="nonzero"/></g></svg>