<svg xmlns="http://www.w3.org/2000/svg" xmlns:xlink="http://www.w3.org/1999/xlink" width="1366" zoomAndPan="magnify" viewBox="0 0 1024.5 576" height="768" preserveAspectRatio="xMidYMid meet" version="1.0"><defs><clipPath id="c242142ab7"><path d="M 0 384 L 1024 384 L 1024 575.859375 L 0 575.859375 Z M 0 384 " clip-rule="nonzero"/></clipPath><clipPath id="73829f8a23"><path d="M -70.960938 405.863281 L 1095.320312 320.089844 L 1120.609375 663.992188 L -45.667969 749.765625 Z M -70.960938 405.863281 " clip-rule="nonzero"/></clipPath><clipPath id="9fc44fd1b9"><path d="M 1120.726562 663.644531 L -45.554688 749.417969 L -70.84375 405.515625 L 1095.433594 319.738281 Z M 1120.726562 663.644531 " clip-rule="nonzero"/></clipPath><clipPath id="0a864ae5f4"><path d="M 0 403 L 1024 403 L 1024 575.859375 L 0 575.859375 Z M 0 403 " clip-rule="nonzero"/></clipPath><clipPath id="8f154174e0"><path d="M -70.960938 405.863281 L 1095.320312 320.089844 L 1120.609375 663.992188 L -45.667969 749.765625 Z M -70.960938 405.863281 " clip-rule="nonzero"/></clipPath><clipPath id="511236d077"><path d="M 1120.726562 663.644531 L -45.554688 749.417969 L -70.84375 405.515625 L 1095.433594 319.738281 Z M 1120.726562 663.644531 " clip-rule="nonzero"/></clipPath></defs><g clip-path="url(#c242142ab7)"><g clip-path="url(#73829f8a23)"><g clip-path="url(#9fc44fd1b9)"><path fill="#ffffff" d="M 1119.324219 644.585938 L 1101.964844 408.515625 C 1098.210938 407.039062 1094.722656 403.375 1093.929688 396.429688 C 1094.027344 395.863281 1077.347656 402.375 1076.164062 403.375 C 1079.273438 403.285156 1055.429688 408.574219 1058.984375 411.222656 C 1057.859375 411.164062 1041.910156 415.207031 1041.691406 418.410156 C 1036.230469 410.371094 1017.511719 401.980469 1022.695312 417.25 C 1019.757812 412.53125 1006.578125 421.414062 1004.9375 419.574219 C 1006.3125 424.445312 987.550781 423.582031 986.46875 420.300781 C 989.597656 428.578125 968.714844 419.367188 969.433594 429.152344 C 969.039062 423.753906 948.851562 414.945312 949.0625 417.835938 C 949.621094 425.425781 934.296875 446.058594 933.539062 435.785156 C 933.453125 434.636719 913.3125 422.179688 913.75 428.101562 C 913.882812 429.910156 898.078125 417.347656 899.660156 438.871094 C 900.234375 446.671875 884.273438 443.925781 883.722656 436.4375 C 883.566406 434.3125 868.644531 419.96875 869.355469 429.613281 C 869.503906 431.632812 849.394531 438.679688 848.425781 425.480469 C 847.667969 415.171875 827.234375 419.195312 827.1875 418.570312 C 826.933594 415.15625 807.375 415.332031 807.21875 413.210938 C 807.421875 415.996094 789.183594 427.492188 788.738281 421.429688 C 788.777344 421.988281 771.082031 423.253906 771.722656 431.960938 C 772.011719 435.863281 752.789062 426.875 753.359375 434.609375 C 753.519531 436.804688 735.265625 438.074219 735.605469 442.707031 C 735.117188 436.054688 716.441406 434.488281 716.265625 432.085938 C 716.824219 439.675781 699.0625 457.6875 698.132812 445.042969 C 697.699219 439.15625 680.046875 428.128906 680.078125 428.582031 C 680.855469 439.136719 660.707031 418.941406 661.671875 432.070312 C 661.9375 435.695312 643.566406 430.148438 643.554688 429.972656 C 644.226562 439.097656 626.609375 425.757812 626.289062 421.402344 C 625.351562 408.65625 607.300781 428.890625 607.136719 426.628906 C 606.960938 424.261719 589.851562 438.753906 588.839844 424.996094 C 588.363281 418.484375 571.652344 399.824219 572.558594 412.152344 C 571.953125 403.933594 554.441406 411.488281 554.347656 410.234375 C 554.660156 414.484375 533.402344 409.183594 534.117188 418.9375 C 533.839844 415.140625 517.601562 413.359375 517.296875 409.214844 C 517.746094 415.34375 497.675781 403.828125 498.257812 411.769531 C 498 408.25 480.027344 412.410156 479.917969 410.914062 C 479.992188 411.921875 463.105469 410.398438 462.589844 403.363281 C 462.914062 407.785156 444.914062 402.070312 444.839844 401.027344 C 444.816406 400.710938 427.855469 397.6875 427.546875 393.507812 C 428.019531 399.917969 409.28125 387.007812 409.609375 391.5 C 409.90625 395.507812 392.128906 397.585938 391.605469 390.445312 C 391.683594 391.523438 373.050781 392.402344 373.375 396.828125 C 373.101562 393.101562 355.632812 397.957031 355.472656 395.761719 C 355.132812 391.128906 337.816406 394.261719 337.417969 388.828125 C 337.304688 387.257812 319.304688 387.742188 319.25 386.976562 C 318.554688 377.539062 302.226562 403.601562 301.664062 395.9375 C 301.910156 399.316406 283.230469 391.445312 283.070312 389.285156 C 282.8125 385.769531 266.777344 410.585938 265.960938 399.472656 C 265.480469 392.960938 248.386719 402.414062 248.535156 404.433594 C 249.144531 412.6875 225.867188 398.535156 225.695312 396.203125 C 225.289062 390.664062 208.554688 420.257812 207.988281 412.527344 C 207.152344 401.171875 188.582031 416.722656 188.730469 418.742188 C 188.859375 420.515625 172.582031 430.609375 172.679688 431.898438 C 172.269531 426.359375 154.308594 437.800781 154.324219 438.042969 C 154.398438 439.019531 134.964844 450.007812 133.738281 433.324219 C 133.84375 434.753906 117.152344 451.109375 117.144531 450.96875 C 116.933594 448.148438 97.292969 439.613281 97.515625 442.644531 C 97.421875 441.355469 78.816406 441.671875 78.761719 440.941406 C 78.605469 438.816406 58.730469 442.34375 58.785156 443.109375 C 58.875 444.292969 40.328125 416.875 41.273438 429.726562 C 41.722656 435.855469 21.882812 415.535156 22.175781 419.539062 C 22.257812 420.65625 1.820312 433.679688 0.757812 432.566406 C -1.125 435.539062 -14.65625 432.964844 -16.695312 436.160156 C -20.789062 430.019531 -35.535156 440.941406 -36.832031 443.769531 C -40.089844 425.660156 -52.703125 445.566406 -54.742188 453.527344 C -58.625 446.457031 -64.921875 445.589844 -67.917969 446.757812 L -47.058594 730.367188 Z M 1119.324219 644.585938 " fill-opacity="1" fill-rule="nonzero"/></g></g></g><g clip-path="url(#0a864ae5f4)"><g clip-path="url(#8f154174e0)"><g clip-path="url(#511236d077)"><path fill="#ffffff" d="M 1120.695312 663.21875 L 1103.332031 427.148438 C 1099.582031 425.671875 1096.09375 422.007812 1095.300781 415.0625 C 1095.398438 414.496094 1078.71875 421.011719 1077.53125 422.007812 C 1080.644531 421.917969 1056.800781 427.210938 1060.355469 429.855469 C 1059.230469 429.796875 1043.28125 433.839844 1043.0625 437.042969 C 1037.601562 429.007812 1018.882812 420.613281 1024.066406 435.886719 C 1021.128906 431.164062 1007.949219 440.046875 1006.308594 438.207031 C 1007.683594 443.078125 988.917969 442.214844 987.835938 438.933594 C 990.96875 447.214844 970.085938 438 970.804688 447.785156 C 970.40625 442.386719 950.21875 433.578125 950.433594 436.46875 C 950.992188 444.058594 935.664062 464.691406 934.910156 454.417969 C 934.824219 453.269531 914.683594 440.8125 915.121094 446.734375 C 915.253906 448.542969 899.445312 435.980469 901.03125 457.503906 C 901.605469 465.304688 885.644531 462.558594 885.09375 455.070312 C 884.9375 452.945312 870.015625 438.601562 870.722656 448.246094 C 870.875 450.269531 850.765625 457.316406 849.796875 444.113281 C 849.039062 433.804688 828.601562 437.828125 828.558594 437.203125 C 828.304688 433.789062 808.742188 433.96875 808.585938 431.84375 C 808.792969 434.628906 790.554688 446.125 790.109375 440.066406 C 790.148438 440.621094 772.453125 441.886719 773.09375 450.597656 C 773.378906 454.496094 754.160156 445.511719 754.730469 453.242188 C 754.890625 455.4375 736.636719 456.707031 736.976562 461.339844 C 736.488281 454.6875 717.8125 453.121094 717.636719 450.71875 C 718.195312 458.308594 700.433594 476.320312 699.503906 463.675781 C 699.070312 457.789062 681.417969 446.761719 681.449219 447.214844 C 682.226562 457.769531 662.078125 437.574219 663.042969 450.707031 C 663.308594 454.328125 644.9375 448.78125 644.925781 448.605469 C 645.59375 457.730469 627.980469 444.390625 627.660156 440.035156 C 626.722656 427.289062 608.671875 447.527344 608.503906 445.261719 C 608.332031 442.894531 591.222656 457.386719 590.210938 443.632812 C 589.734375 437.117188 573.023438 418.457031 573.929688 430.785156 C 573.324219 422.566406 555.8125 430.121094 555.71875 428.867188 C 556.03125 433.117188 534.773438 427.820312 535.488281 437.570312 C 535.210938 433.773438 518.972656 431.992188 518.667969 427.847656 C 519.117188 433.976562 499.046875 422.460938 499.628906 430.402344 C 499.371094 426.886719 481.398438 431.042969 481.289062 429.546875 C 481.363281 430.554688 464.476562 429.03125 463.957031 421.996094 C 464.285156 426.417969 446.285156 420.703125 446.207031 419.660156 C 446.183594 419.347656 429.226562 416.320312 428.917969 412.140625 C 429.386719 418.550781 410.652344 405.640625 410.980469 410.132812 C 411.277344 414.140625 393.5 416.21875 392.972656 409.078125 C 393.054688 410.15625 374.417969 411.039062 374.746094 415.460938 C 374.46875 411.734375 357.003906 416.589844 356.84375 414.394531 C 356.5 409.765625 339.1875 412.894531 338.789062 407.460938 C 338.671875 405.894531 320.675781 406.375 320.617188 405.609375 C 319.925781 396.171875 303.597656 422.234375 303.035156 414.570312 C 303.28125 417.949219 284.597656 410.078125 284.441406 407.921875 C 284.183594 404.402344 268.148438 429.21875 267.332031 418.109375 C 266.851562 411.59375 249.757812 421.046875 249.90625 423.066406 C 250.515625 431.320312 227.238281 417.167969 227.066406 414.835938 C 226.660156 409.296875 209.925781 438.894531 209.355469 431.160156 C 208.523438 419.808594 189.949219 435.355469 190.097656 437.375 C 190.230469 439.152344 173.953125 449.242188 174.046875 450.53125 C 173.640625 444.992188 155.679688 456.433594 155.695312 456.679688 C 155.769531 457.652344 136.335938 468.640625 135.109375 451.960938 C 135.214844 453.386719 118.523438 469.742188 118.511719 469.601562 C 118.304688 466.78125 98.664062 458.246094 98.886719 461.277344 C 98.792969 459.988281 80.1875 460.304688 80.132812 459.574219 C 79.976562 457.449219 60.101562 460.976562 60.15625 461.742188 C 60.242188 462.929688 41.699219 435.507812 42.644531 448.359375 C 43.09375 454.488281 23.25 434.167969 23.546875 438.171875 C 23.628906 439.289062 3.191406 452.3125 2.128906 451.199219 C 0.246094 454.175781 -13.285156 451.597656 -15.328125 454.792969 C -19.421875 448.652344 -34.164062 459.574219 -35.460938 462.402344 C -38.71875 444.292969 -51.332031 464.199219 -53.375 472.160156 C -57.253906 465.089844 -63.550781 464.222656 -66.546875 465.390625 L -45.691406 749 Z M 1120.695312 663.21875 " fill-opacity="1" fill-rule="nonzero"/></g></g></g></svg>